<?xml version="1.0" encoding="UTF-8"?>
<svg id="Layer_1" data-name="Layer 1" xmlns="http://www.w3.org/2000/svg" xmlns:xlink="http://www.w3.org/1999/xlink" viewBox="0 0 633 829">
  <defs>
    <style>
      .cls-1 {
        fill: url(#linear-gradient-2);
      }

      .cls-2 {
        fill: #f9ca06;
      }

      .cls-3 {
        fill: url(#radial-gradient);
      }

      .cls-4 {
        fill: #002b66;
      }

      .cls-5 {
        fill: url(#radial-gradient-2);
      }

      .cls-6 {
        fill: url(#radial-gradient-3);
      }

      .cls-7 {
        fill: url(#linear-gradient);
      }
    </style>
    <radialGradient id="radial-gradient" cx="316.5" cy="335.54" fx="316.5" fy="335.54" r="71.33" gradientUnits="userSpaceOnUse">
      <stop offset="0" stop-color="#053d7f"/>
      <stop offset="1" stop-color="#002c68"/>
    </radialGradient>
    <radialGradient id="radial-gradient-2" cx="317.17" cy="240.77" fx="317.17" fy="240.77" r="322.85" gradientUnits="userSpaceOnUse">
      <stop offset="0" stop-color="#053d7f"/>
      <stop offset="1" stop-color="#002c68"/>
    </radialGradient>
    <linearGradient id="linear-gradient" x1="317.16" y1=".05" x2="317.16" y2="68.01" gradientUnits="userSpaceOnUse">
      <stop offset="0" stop-color="#0a41c9"/>
      <stop offset="1" stop-color="#0571d3"/>
    </linearGradient>
    <linearGradient id="linear-gradient-2" y1="829" y2="761.04" xlink:href="#linear-gradient"/>
    <radialGradient id="radial-gradient-3" cx="307.6" cy="673.74" fx="307.6" fy="673.74" r="312.1" gradientUnits="userSpaceOnUse">
      <stop offset="0" stop-color="#053d7f"/>
      <stop offset="1" stop-color="#002c68"/>
    </radialGradient>
  </defs>
  <g>
    <path class="cls-3" d="m321.38,404.34c-1,.02-2.01.03-3.01.03-41.83-.36-75.62-33.47-75.62-74.24,0-26.87,14.66-50.4,36.63-63.43-3.33,8.33-5.15,17.39-5.15,26.87,0,41.01,34.17,74.25,76.32,74.25,14.54,0,28.13-3.95,39.7-10.82-10.81,27.06-37.45,46.44-68.87,47.34Z"/>
    <path class="cls-5" d="m588.8,90.32v42.42c0,4.45-.11,8.89-.33,13.33-.22,4.44-.55,8.87-.98,13.29-.44,4.43-.98,8.84-1.64,13.24-.65,4.39-1.41,8.78-2.27,13.13-.87,4.36-1.85,8.7-2.92,13.01-1.09,4.32-2.27,8.6-3.56,12.85-1.29,4.26-2.69,8.48-4.18,12.67-1.5,4.18-3.1,8.32-4.8,12.43s-3.51,8.17-5.41,12.19c-1.9,4.02-3.89,7.99-5.99,11.91-2.09,3.92-4.29,7.79-6.57,11.6-2.29,3.81-4.67,7.57-7.13,11.27-2.47,3.69-5.03,7.32-7.68,10.89-2.65,3.58-5.38,7.08-8.2,10.51-2.82,3.44-5.73,6.8-8.71,10.1-2.99,3.29-6.05,6.51-9.2,9.66-3.14,3.14-6.35,6.21-9.65,9.19-3.29,2.98-6.66,5.89-10.1,8.71-3.43,2.82-6.94,5.55-10.51,8.2-3.57,2.65-7.2,5.21-10.9,7.68-3.69,2.47-7.45,4.84-11.26,7.13-3.82,2.29-7.68,4.48-11.6,6.57-3.92,2.1-7.89,4.1-11.91,6-4.02,1.9-8.08,3.7-12.19,5.4-4.1,1.7-8.25,3.3-12.44,4.8-4.19,1.49-8.4,2.89-12.66,4.18-4.25,1.29-8.54,2.48-12.85,3.55-4.31,1.09-8.64,2.06-13,2.93-.74.15-1.48.29-2.22.43.11-.08.23-.15.34-.23,14.19-9.62,25-22.99,31.25-38.65,1.59-3.98.47-8.53-2.78-11.31-1.86-1.59-4.17-2.4-6.5-2.4-1.76,0-3.53.46-5.11,1.4-10.38,6.16-22.34,9.42-34.59,9.42-36.57,0-66.32-28.82-66.32-64.25,0-8,1.49-15.79,4.44-23.16,1.59-3.98.47-8.53-2.79-11.31-1.86-1.59-4.17-2.4-6.5-2.4-1.76,0-3.52.46-5.1,1.4-26,15.43-41.53,42.35-41.53,72.03s15.52,55.35,39,70.42c-2.53-.42-5.06-.89-7.58-1.39-4.36-.87-8.7-1.84-13.01-2.93-4.31-1.07-8.6-2.26-12.85-3.55s-8.48-2.69-12.66-4.18c-4.19-1.5-8.33-3.1-12.44-4.8-4.11-1.7-8.17-3.5-12.19-5.4-4.01-1.9-7.98-3.9-11.91-6-3.92-2.09-7.78-4.28-11.59-6.57-3.82-2.29-7.57-4.66-11.27-7.13-3.7-2.47-7.33-5.03-10.9-7.68-3.57-2.65-7.07-5.38-10.51-8.2-3.44-2.82-6.8-5.73-10.1-8.71-3.29-2.98-6.51-6.05-9.65-9.19-3.15-3.15-6.21-6.37-9.19-9.66-2.99-3.3-5.89-6.66-8.71-10.1-2.83-3.43-5.56-6.93-8.21-10.51-2.65-3.57-5.2-7.2-7.67-10.89-2.48-3.7-4.85-7.46-7.14-11.27-2.28-3.81-4.47-7.68-6.57-11.6-2.09-3.92-4.09-7.89-6-11.91-1.89-4.02-3.69-8.08-5.4-12.19-1.69-4.11-3.3-8.25-4.79-12.43-1.5-4.19-2.89-8.41-4.19-12.67-1.29-4.25-2.47-8.53-3.55-12.85-1.08-4.31-2.06-8.65-2.93-13.01-.86-4.35-1.62-8.74-2.27-13.13-.66-4.4-1.2-8.81-1.64-13.24-.43-4.42-.76-8.85-.98-13.29-.21-4.44-.32-8.88-.32-13.33v-42.42c0-.62.05-1.22.17-1.83.12-.59.29-1.18.52-1.75.24-.56.52-1.1.86-1.61.34-.5.73-.98,1.16-1.41.44-.43.91-.82,1.42-1.16.51-.34,1.04-.63,1.61-.86.57-.23,1.15-.41,1.75-.52.6-.12,1.21-.18,1.82-.18h524.64c.61,0,1.22.06,1.82.18.6.11,1.18.29,1.75.52.57.23,1.11.52,1.62.86s.98.73,1.41,1.16c.43.43.82.91,1.16,1.41.34.51.62,1.05.86,1.61.23.57.41,1.16.53,1.75.11.61.17,1.21.17,1.83Z"/>
  </g>
  <path class="cls-7" d="m17.19.05h599.94c8.94,0,16.19,7.25,16.19,16.19v35.58c0,8.94-7.25,16.19-16.19,16.19H17.19c-8.94,0-16.19-7.25-16.19-16.19V16.24C1,7.3,8.25.05,17.19.05Z"/>
  <path class="cls-1" d="m17.19,761.04h599.94c8.94,0,16.19,7.25,16.19,16.19v35.58c0,8.94-7.25,16.19-16.19,16.19H17.19c-8.94,0-16.19-7.25-16.19-16.19v-35.58c0-8.94,7.25-16.19,16.19-16.19Z"/>
  <path class="cls-6" d="m587.89,682.65c-.22-4.44-.55-8.87-.98-13.3-.44-4.42-.99-8.83-1.64-13.23-.65-4.4-1.41-8.78-2.28-13.14-.86-4.35-1.84-8.69-2.92-13.01-1.08-4.31-2.26-8.59-3.55-12.84-1.3-4.26-2.69-8.48-4.19-12.66-1.5-4.19-3.1-8.33-4.79-12.44-1.71-4.11-3.51-8.17-5.41-12.19-1.9-4.02-3.9-7.99-5.99-11.91-2.1-3.92-4.29-7.79-6.57-11.6-2.29-3.81-4.67-7.57-7.14-11.26-2.47-3.7-5.02-7.34-7.67-10.9-2.65-3.58-5.39-7.08-8.21-10.51-2.82-3.44-5.72-6.81-8.71-10.1-2.98-3.29-6.04-6.51-9.19-9.66s-6.36-6.21-9.66-9.19c-3.29-2.99-6.65-5.89-10.09-8.71s-6.94-5.55-10.51-8.2c-3.57-2.65-7.2-5.21-10.9-7.68-3.7-2.47-7.45-4.84-11.27-7.13-3.81-2.29-7.67-4.48-11.6-6.57-3.92-2.1-7.89-4.1-11.9-6-4.02-1.9-8.08-3.7-12.19-5.4-4.11-1.7-8.25-3.3-12.44-4.8s-8.41-2.89-12.66-4.18c-4.25-1.29-8.54-2.48-12.85-3.56-4.31-1.08-8.65-2.05-13.01-2.92s-8.74-1.62-13.14-2.28c-4.39-.65-8.81-1.19-13.23-1.63s-8.86-.76-13.29-.98c-4.45-.22-8.89-.33-13.33-.33s-8.89.11-13.33.33c-4.44.22-8.88.54-13.3.98s-8.83.98-13.23,1.63c-4.4.66-8.78,1.41-13.14,2.28-4.36.87-8.69,1.84-13,2.92-4.31,1.08-8.6,2.27-12.86,3.56-4.25,1.29-8.47,2.68-12.65,4.18-4.19,1.5-8.34,3.1-12.44,4.8-4.11,1.7-8.17,3.5-12.19,5.4-4.02,1.9-7.99,3.9-11.91,6-3.92,2.09-7.79,4.28-11.6,6.57-3.82,2.29-7.57,4.66-11.26,7.13-3.7,2.47-7.33,5.03-10.9,7.68-3.58,2.65-7.08,5.38-10.51,8.2-3.44,2.82-6.81,5.72-10.1,8.71-3.3,2.98-6.51,6.05-9.65,9.19-3.15,3.15-6.21,6.37-9.2,9.66s-5.89,6.66-8.71,10.1c-2.82,3.43-5.55,6.93-8.2,10.51-2.65,3.56-5.21,7.2-7.68,10.9-2.47,3.69-4.85,7.45-7.13,11.26-2.29,3.81-4.48,7.68-6.57,11.6-2.1,3.92-4.1,7.89-6,11.91-1.9,4.02-3.7,8.08-5.4,12.19-1.7,4.11-3.3,8.25-4.8,12.44-1.5,4.18-2.89,8.4-4.18,12.66-1.29,4.25-2.47,8.53-3.56,12.84-1.07,4.32-2.05,8.66-2.92,13.01-.86,4.36-1.62,8.74-2.27,13.14-.66,4.4-1.2,8.81-1.64,13.23-.43,4.43-.76,8.86-.98,13.3-.22,4.44-.33,8.88-.33,13.33v42.43c0,.61.06,1.22.17,1.81.12.6.3,1.19.53,1.75.23.57.52,1.11.86,1.62.34.51.73.98,1.16,1.41.43.43.9.82,1.41,1.16.51.34,1.05.63,1.62.86.57.23,1.15.41,1.75.53.6.11,1.21.17,1.82.17h524.64c.61,0,1.22-.06,1.82-.17.6-.12,1.18-.3,1.75-.53.57-.23,1.1-.52,1.61-.86.51-.34.98-.73,1.41-1.16.44-.43.82-.9,1.17-1.41.33-.51.62-1.05.86-1.62.22-.56.4-1.15.52-1.75.12-.59.17-1.2.17-1.81v-42.43c0-4.45-.11-8.89-.32-13.33Zm-271.1-206.22c-29.73,97.33-189.06,103.89-235.61,183.95.28-1.62.58-3.23.9-4.84.76-3.84,1.62-7.65,2.57-11.45.95-3.79,2-7.56,3.13-11.31,1.14-3.74,2.37-7.46,3.68-11.14,1.32-3.69,2.73-7.34,4.23-10.95,1.49-3.62,3.08-7.2,4.75-10.73,1.67-3.54,3.44-7.03,5.28-10.48,1.84-3.45,3.77-6.85,5.79-10.21,2.01-3.36,4.1-6.67,6.27-9.92,2.17-3.25,4.43-6.45,6.76-9.59,2.33-3.15,4.74-6.23,7.22-9.25,2.48-3.03,5.04-5.99,7.66-8.89,2.63-2.9,5.33-5.73,8.1-8.5,2.76-2.77,5.59-5.46,8.5-8.09,2.89-2.63,5.86-5.18,8.88-7.67,3.02-2.47,6.11-4.88,9.25-7.21,3.14-2.34,6.34-4.59,9.59-6.76,3.26-2.18,6.56-4.27,9.92-6.28,3.36-2.01,6.76-3.94,10.21-5.78,3.45-1.85,6.95-3.61,10.48-5.28,3.54-1.67,7.11-3.26,10.73-4.75,3.62-1.5,7.26-2.91,10.95-4.23,3.68-1.31,7.4-2.54,11.14-3.68,3.75-1.13,7.52-2.18,11.31-3.13,3.8-.95,7.61-1.81,11.45-2.57,3.84-.76,7.7-1.43,11.56-2.01,3.87-.57,7.75-1.05,11.65-1.44,3.9-.38,7.8-.67,11.7-.86,3.92-.19,7.82-.29,11.74-.29s7.82.1,11.73.29c3.9.19,7.8.48,11.7.86,3.9.39,7.78.87,11.65,1.44,3.87.58,7.72,1.25,11.56,2.01,3.84.76,7.66,1.62,11.45,2.57,3.79.95,7.56,2,11.31,3.13,3.74,1.14,7.46,2.37,11.15,3.68,3.68,1.32,7.33,2.73,10.94,4.23,3.62,1.49,7.19,3.08,10.73,4.75,3.54,1.67,7.03,3.43,10.48,5.28,3.45,1.84,6.86,3.77,10.21,5.78,3.36,2.01,6.66,4.1,9.92,6.28,3.25,2.17,6.45,4.42,9.59,6.76,3.15,2.33,6.23,4.74,9.26,7.21,3.02,2.49,5.98,5.04,8.88,7.67,2.9,2.63,5.73,5.32,8.5,8.09,2.77,2.77,5.46,5.6,8.09,8.5s5.18,5.86,7.67,8.89c2.48,3.02,4.88,6.1,7.21,9.25,2.33,3.14,4.59,6.34,6.76,9.59,2.18,3.25,4.27,6.56,6.28,9.92,2.01,3.36,3.94,6.76,5.78,10.21,1.85,3.45,3.61,6.94,5.28,10.48,1.68,3.53,3.26,7.11,4.75,10.73,1.5,3.61,2.91,7.26,4.23,10.95,1.32,3.68,2.54,7.4,3.68,11.14,1.14,3.75,2.18,7.52,3.13,11.31.95,3.8,1.81,7.61,2.57,11.45.29,1.48.57,2.96.84,4.44-46.58-79.68-205.44-86.38-235.12-183.55Z"/>
  <path class="cls-4" d="m559.32,747.72s-.01.06-.02.09H73.74s-.02-.06-.02-.09h485.6Z"/>
  <path class="cls-2" d="m390.25,357c-10.81,27.06-37.45,46.44-68.87,47.34-.76.03-1.53.04-2.3.04-.24,0-.47,0-.71-.01-41.83-.36-75.62-33.47-75.62-74.24,0-26.87,14.66-50.4,36.63-63.43-3.33,8.33-5.15,17.39-5.15,26.87,0,41.01,34.17,74.25,76.32,74.25,14.54,0,28.13-3.95,39.7-10.82Z"/>
  <path class="cls-2" d="m390.25,357c-10.81,27.06-37.45,46.44-68.87,47.34-.76.03-1.53.04-2.3.04-.24,0-.47,0-.71-.01-41.83-.36-75.62-33.47-75.62-74.24,0-26.87,14.66-50.4,36.63-63.43-3.33,8.33-5.15,17.39-5.15,26.87,0,41.01,34.17,74.25,76.32,74.25,14.54,0,28.13-3.95,39.7-10.82Z"/>
</svg>