<svg xmlns="http://www.w3.org/2000/svg" xmlns:xlink="http://www.w3.org/1999/xlink" width="432" zoomAndPan="magnify" viewBox="0 0 324 323.999988" height="432" preserveAspectRatio="xMidYMid meet" version="1.0"><path fill="#000000" d="M 275.398438 183.601562 L 248.398438 183.601562 L 248.398438 178.199219 C 248.398438 169.289062 241.109375 162 232.199219 162 L 226.800781 162 L 226.800781 144.664062 C 246.023438 134.839844 259.199219 114.859375 259.199219 91.800781 L 259.199219 48.601562 C 259.199219 21.816406 237.382812 0 210.601562 0 L 189 0 C 167.617188 0 149.363281 13.933594 142.9375 33.210938 L 133.703125 37.800781 C 124.523438 42.390625 118.800781 51.679688 118.800781 61.9375 L 118.800781 89.585938 L 114.371094 93.960938 L 113.777344 93.367188 C 111.78125 91.367188 108.160156 91.367188 106.164062 93.367188 L 7.882812 191.644531 C 2.808594 196.722656 0 203.472656 0 210.707031 C 0 217.945312 2.808594 224.640625 7.882812 229.714844 C 13.121094 234.953125 20.035156 237.601562 26.890625 237.601562 C 33.75 237.601562 40.714844 234.953125 45.953125 229.714844 L 144.234375 131.4375 C 146.339844 129.328125 146.339844 125.929688 144.234375 123.820312 L 140.722656 120.3125 L 145.042969 114.910156 C 145.042969 114.910156 145.042969 114.859375 145.042969 114.859375 C 150.496094 127.765625 160.378906 138.292969 172.800781 144.664062 L 172.800781 162 L 167.398438 162 C 158.488281 162 151.199219 169.289062 151.199219 178.199219 L 151.199219 183.601562 L 107.351562 183.601562 L 96.496094 194.398438 L 64.097656 226.800781 L 53.296875 237.601562 L 108 237.601562 C 113.941406 237.601562 118.800781 242.460938 118.800781 248.398438 L 118.800781 318.601562 C 118.800781 321.570312 121.230469 324 124.199219 324 L 270 324 L 270 248.398438 C 270 245.429688 272.429688 243 275.398438 243 C 278.371094 243 280.800781 245.429688 280.800781 248.398438 L 280.800781 324 L 318.601562 324 C 321.570312 324 324 321.570312 324 318.601562 L 324 232.199219 C 324 205.414062 302.183594 183.601562 275.398438 183.601562 Z M 140.398438 48.601562 L 140.398438 97.738281 C 140.398438 101.410156 139.15625 104.976562 136.835938 107.839844 L 133.054688 112.644531 L 122.039062 101.628906 L 128.035156 95.632812 C 129.007812 94.609375 129.601562 93.257812 129.601562 91.800781 L 129.601562 61.9375 C 129.601562 55.78125 133.054688 50.21875 138.5625 47.464844 L 140.398438 46.546875 Z M 151.199219 48.601562 C 151.199219 27.757812 168.15625 10.800781 189 10.800781 L 210.601562 10.800781 C 231.445312 10.800781 248.398438 27.757812 248.398438 48.601562 L 248.398438 54 L 151.199219 54 Z M 151.199219 91.800781 L 151.199219 91.261719 C 163.511719 88.777344 172.800781 77.867188 172.800781 64.800781 L 226.800781 64.800781 C 226.800781 77.867188 236.089844 88.777344 248.398438 91.261719 L 248.398438 91.800781 C 248.398438 118.585938 226.582031 140.398438 199.800781 140.398438 C 173.015625 140.398438 151.199219 118.585938 151.199219 91.800781 Z M 216 148.878906 L 216 162.59375 C 209.410156 163.945312 203.6875 167.671875 199.800781 172.800781 C 195.910156 167.617188 190.1875 163.945312 183.601562 162.59375 L 183.601562 148.878906 C 188.785156 150.335938 194.183594 151.199219 199.800781 151.199219 C 205.414062 151.199219 210.816406 150.390625 216 148.878906 Z M 189 183.601562 L 162 183.601562 L 162 178.199219 C 162 175.230469 164.429688 172.800781 167.398438 172.800781 L 178.199219 172.800781 C 185.21875 172.800781 191.269531 177.335938 193.480469 183.601562 Z M 205.199219 253.800781 L 194.398438 253.800781 L 194.398438 194.398438 L 205.199219 194.398438 Z M 237.601562 183.601562 L 206.117188 183.601562 C 208.332031 177.335938 214.378906 172.800781 221.398438 172.800781 L 232.199219 172.800781 C 235.171875 172.800781 237.601562 175.230469 237.601562 178.199219 Z M 237.601562 183.601562 " fill-opacity="1" fill-rule="nonzero"/><path fill="#000000" d="M 275.398438 124.199219 C 275.398438 127.171875 277.828125 129.601562 280.800781 129.601562 L 297 129.601562 C 299.96875 129.601562 302.398438 127.171875 302.398438 124.199219 C 302.398438 121.230469 299.96875 118.800781 297 118.800781 L 280.800781 118.800781 C 277.828125 118.800781 275.398438 121.230469 275.398438 124.199219 Z M 275.398438 124.199219 " fill-opacity="1" fill-rule="nonzero"/><path fill="#000000" d="M 275.398438 108 C 276.804688 108 278.152344 107.460938 279.234375 106.433594 L 290.035156 95.632812 C 292.140625 93.527344 292.140625 90.125 290.035156 88.019531 C 287.929688 85.914062 284.527344 85.914062 282.421875 88.019531 L 271.621094 98.820312 C 269.515625 100.925781 269.515625 104.328125 271.621094 106.433594 C 272.699219 107.515625 274.050781 108 275.453125 108 Z M 275.398438 108 " fill-opacity="1" fill-rule="nonzero"/><path fill="#000000" d="M 282.367188 160.433594 C 283.445312 161.515625 284.796875 162 286.199219 162 C 287.605469 162 288.953125 161.460938 290.035156 160.433594 C 292.140625 158.328125 292.140625 154.925781 290.035156 152.820312 L 279.234375 142.019531 C 277.128906 139.914062 273.726562 139.914062 271.621094 142.019531 C 269.515625 144.125 269.515625 147.527344 271.621094 149.632812 L 282.421875 160.433594 Z M 282.367188 160.433594 " fill-opacity="1" fill-rule="nonzero"/><path fill="#000000" d="M 275.398438 183.601562 L 248.398438 183.601562 L 248.398438 178.199219 C 248.398438 169.289062 241.109375 162 232.199219 162 L 226.800781 162 L 226.800781 144.664062 C 246.023438 134.839844 259.199219 114.859375 259.199219 91.800781 L 259.199219 48.601562 C 259.199219 21.816406 237.382812 0 210.601562 0 L 189 0 C 167.617188 0 149.363281 13.933594 142.9375 33.210938 L 133.703125 37.800781 C 124.523438 42.390625 118.800781 51.679688 118.800781 61.9375 L 118.800781 89.585938 L 114.371094 93.960938 L 113.777344 93.367188 C 111.78125 91.367188 108.160156 91.367188 106.164062 93.367188 L 7.882812 191.644531 C 2.808594 196.722656 0 203.472656 0 210.707031 C 0 217.945312 2.808594 224.640625 7.882812 229.714844 C 13.121094 234.953125 20.035156 237.601562 26.890625 237.601562 C 33.75 237.601562 40.714844 234.953125 45.953125 229.714844 L 144.234375 131.4375 C 146.339844 129.328125 146.339844 125.929688 144.234375 123.820312 L 140.722656 120.3125 L 145.042969 114.910156 C 145.042969 114.910156 145.042969 114.859375 145.042969 114.859375 C 150.496094 127.765625 160.378906 138.292969 172.800781 144.664062 L 172.800781 162 L 167.398438 162 C 158.488281 162 151.199219 169.289062 151.199219 178.199219 L 151.199219 183.601562 L 107.351562 183.601562 L 96.496094 194.398438 L 64.097656 226.800781 L 53.296875 237.601562 L 108 237.601562 C 113.941406 237.601562 118.800781 242.460938 118.800781 248.398438 L 118.800781 318.601562 C 118.800781 321.570312 121.230469 324 124.199219 324 L 270 324 L 270 248.398438 C 270 245.429688 272.429688 243 275.398438 243 C 278.371094 243 280.800781 245.429688 280.800781 248.398438 L 280.800781 324 L 318.601562 324 C 321.570312 324 324 321.570312 324 318.601562 L 324 232.199219 C 324 205.414062 302.183594 183.601562 275.398438 183.601562 Z M 140.398438 48.601562 L 140.398438 97.738281 C 140.398438 101.410156 139.15625 104.976562 136.835938 107.839844 L 133.054688 112.644531 L 122.039062 101.628906 L 128.035156 95.632812 C 129.007812 94.609375 129.601562 93.257812 129.601562 91.800781 L 129.601562 61.9375 C 129.601562 55.78125 133.054688 50.21875 138.5625 47.464844 L 140.398438 46.546875 Z M 151.199219 48.601562 C 151.199219 27.757812 168.15625 10.800781 189 10.800781 L 210.601562 10.800781 C 231.445312 10.800781 248.398438 27.757812 248.398438 48.601562 L 248.398438 54 L 151.199219 54 Z M 151.199219 91.800781 L 151.199219 91.261719 C 163.511719 88.777344 172.800781 77.867188 172.800781 64.800781 L 226.800781 64.800781 C 226.800781 77.867188 236.089844 88.777344 248.398438 91.261719 L 248.398438 91.800781 C 248.398438 118.585938 226.582031 140.398438 199.800781 140.398438 C 173.015625 140.398438 151.199219 118.585938 151.199219 91.800781 Z M 216 148.878906 L 216 162.59375 C 209.410156 163.945312 203.6875 167.671875 199.800781 172.800781 C 195.910156 167.617188 190.1875 163.945312 183.601562 162.59375 L 183.601562 148.878906 C 188.785156 150.335938 194.183594 151.199219 199.800781 151.199219 C 205.414062 151.199219 210.816406 150.390625 216 148.878906 Z M 189 183.601562 L 162 183.601562 L 162 178.199219 C 162 175.230469 164.429688 172.800781 167.398438 172.800781 L 178.199219 172.800781 C 185.21875 172.800781 191.269531 177.335938 193.480469 183.601562 Z M 205.199219 253.800781 L 194.398438 253.800781 L 194.398438 194.398438 L 205.199219 194.398438 Z M 237.601562 183.601562 L 206.117188 183.601562 C 208.332031 177.335938 214.378906 172.800781 221.398438 172.800781 L 232.199219 172.800781 C 235.171875 172.800781 237.601562 175.230469 237.601562 178.199219 Z M 237.601562 183.601562 " fill-opacity="1" fill-rule="nonzero"/><path fill="#000000" d="M 275.398438 124.199219 C 275.398438 127.171875 277.828125 129.601562 280.800781 129.601562 L 297 129.601562 C 299.96875 129.601562 302.398438 127.171875 302.398438 124.199219 C 302.398438 121.230469 299.96875 118.800781 297 118.800781 L 280.800781 118.800781 C 277.828125 118.800781 275.398438 121.230469 275.398438 124.199219 Z M 275.398438 124.199219 " fill-opacity="1" fill-rule="nonzero"/><path fill="#000000" d="M 275.398438 108 C 276.804688 108 278.152344 107.460938 279.234375 106.433594 L 290.035156 95.632812 C 292.140625 93.527344 292.140625 90.125 290.035156 88.019531 C 287.929688 85.914062 284.527344 85.914062 282.421875 88.019531 L 271.621094 98.820312 C 269.515625 100.925781 269.515625 104.328125 271.621094 106.433594 C 272.699219 107.515625 274.050781 108 275.453125 108 Z M 275.398438 108 " fill-opacity="1" fill-rule="nonzero"/><path fill="#000000" d="M 282.367188 160.433594 C 283.445312 161.515625 284.796875 162 286.199219 162 C 287.605469 162 288.953125 161.460938 290.035156 160.433594 C 292.140625 158.328125 292.140625 154.925781 290.035156 152.820312 L 279.234375 142.019531 C 277.128906 139.914062 273.726562 139.914062 271.621094 142.019531 C 269.515625 144.125 269.515625 147.527344 271.621094 149.632812 L 282.421875 160.433594 Z M 282.367188 160.433594 " fill-opacity="1" fill-rule="nonzero"/></svg>