<svg xmlns="http://www.w3.org/2000/svg" xmlns:xlink="http://www.w3.org/1999/xlink" width="70" zoomAndPan="magnify" viewBox="0 0 52.5 52.499999" height="70" preserveAspectRatio="xMidYMid meet" version="1.0"><defs><clipPath id="05d1d03210"><path d="M 0 0 L 51.261719 0 L 51.261719 51.261719 L 0 51.261719 Z M 0 0 " clip-rule="nonzero"/></clipPath><clipPath id="75a827c79a"><path d="M 0 0 L 51.261719 0 L 51.261719 51.261719 L 0 51.261719 Z M 0 0 " clip-rule="nonzero"/></clipPath></defs><g clip-path="url(#05d1d03210)"><path fill="#ffffff" d="M 25.664062 49.285156 C 12.640625 49.285156 2.046875 38.691406 2.046875 25.664062 C 2.046875 12.640625 12.640625 2.046875 25.664062 2.046875 C 38.691406 2.046875 49.285156 12.640625 49.285156 25.664062 C 49.285156 38.691406 38.691406 49.285156 25.664062 49.285156 Z M 49.3125 15.675781 C 48.019531 12.617188 46.171875 9.875 43.8125 7.515625 C 41.457031 5.160156 38.710938 3.308594 35.65625 2.015625 C 32.492188 0.679688 29.128906 0 25.664062 0 C 22.203125 0 18.839844 0.679688 15.675781 2.015625 C 12.617188 3.308594 9.875 5.160156 7.515625 7.515625 C 5.160156 9.875 3.308594 12.617188 2.015625 15.675781 C 0.679688 18.839844 0 22.203125 0 25.664062 C 0 29.128906 0.679688 32.492188 2.015625 35.65625 C 3.308594 38.710938 5.160156 41.457031 7.515625 43.8125 C 9.875 46.171875 12.617188 48.019531 15.675781 49.3125 C 18.839844 50.652344 22.203125 51.332031 25.664062 51.332031 C 29.128906 51.332031 32.492188 50.652344 35.65625 49.3125 C 38.710938 48.019531 41.457031 46.171875 43.8125 43.8125 C 46.171875 41.457031 48.019531 38.710938 49.3125 35.65625 C 50.652344 32.492188 51.332031 29.128906 51.332031 25.664062 C 51.332031 22.203125 50.652344 18.839844 49.3125 15.675781 " fill-opacity="1" fill-rule="nonzero"/></g><path fill="#ffffff" d="M 37.96875 34.332031 L 26.6875 25.179688 L 26.6875 13.039062 C 26.6875 12.476562 26.230469 12.019531 25.664062 12.019531 C 25.101562 12.019531 24.644531 12.476562 24.644531 13.039062 L 24.644531 25.664062 C 24.644531 25.972656 24.78125 26.265625 25.019531 26.460938 L 36.679688 35.917969 C 36.867188 36.070312 37.097656 36.148438 37.320312 36.148438 C 37.621094 36.148438 37.914062 36.015625 38.117188 35.769531 C 38.472656 35.328125 38.40625 34.6875 37.96875 34.332031 " fill-opacity="1" fill-rule="nonzero"/><g clip-path="url(#75a827c79a)"><path fill="#ffffff" d="M 25.664062 49.285156 C 12.640625 49.285156 2.046875 38.691406 2.046875 25.664062 C 2.046875 12.640625 12.640625 2.046875 25.664062 2.046875 C 38.691406 2.046875 49.285156 12.640625 49.285156 25.664062 C 49.285156 38.691406 38.691406 49.285156 25.664062 49.285156 Z M 49.3125 15.675781 C 48.019531 12.617188 46.171875 9.875 43.8125 7.515625 C 41.457031 5.160156 38.710938 3.308594 35.65625 2.015625 C 32.492188 0.679688 29.128906 0 25.664062 0 C 22.203125 0 18.839844 0.679688 15.675781 2.015625 C 12.617188 3.308594 9.875 5.160156 7.515625 7.515625 C 5.160156 9.875 3.308594 12.617188 2.015625 15.675781 C 0.679688 18.839844 0 22.203125 0 25.664062 C 0 29.128906 0.679688 32.492188 2.015625 35.65625 C 3.308594 38.710938 5.160156 41.457031 7.515625 43.8125 C 9.875 46.171875 12.617188 48.019531 15.675781 49.3125 C 18.839844 50.652344 22.203125 51.332031 25.664062 51.332031 C 29.128906 51.332031 32.492188 50.652344 35.65625 49.3125 C 38.710938 48.019531 41.457031 46.171875 43.8125 43.8125 C 46.171875 41.457031 48.019531 38.710938 49.3125 35.65625 C 50.652344 32.492188 51.332031 29.128906 51.332031 25.664062 C 51.332031 22.203125 50.652344 18.839844 49.3125 15.675781 " fill-opacity="1" fill-rule="nonzero"/></g><path fill="#ffffff" d="M 37.96875 34.332031 L 26.6875 25.179688 L 26.6875 13.039062 C 26.6875 12.476562 26.230469 12.019531 25.664062 12.019531 C 25.101562 12.019531 24.644531 12.476562 24.644531 13.039062 L 24.644531 25.664062 C 24.644531 25.972656 24.78125 26.265625 25.019531 26.460938 L 36.679688 35.917969 C 36.867188 36.070312 37.097656 36.148438 37.320312 36.148438 C 37.621094 36.148438 37.914062 36.015625 38.117188 35.769531 C 38.472656 35.328125 38.40625 34.6875 37.96875 34.332031 " fill-opacity="1" fill-rule="nonzero"/></svg>