<svg xmlns="http://www.w3.org/2000/svg" xmlns:xlink="http://www.w3.org/1999/xlink" width="97" zoomAndPan="magnify" viewBox="0 0 72.75 59.249999" height="79" preserveAspectRatio="xMidYMid meet" version="1.0"><defs><clipPath id="3fc2049df3"><path d="M 29.859375 52.6875 L 42.097656 52.6875 L 42.097656 57.769531 L 29.859375 57.769531 Z M 29.859375 52.6875 " clip-rule="nonzero"/></clipPath><clipPath id="da5f1ed330"><path d="M 0.332031 12 L 9 12 L 9 41 L 0.332031 41 Z M 0.332031 12 " clip-rule="nonzero"/></clipPath><clipPath id="af2a482e87"><path d="M 64.046875 12.648438 L 71.429688 12.648438 L 71.429688 38.585938 L 64.046875 38.585938 Z M 64.046875 12.648438 " clip-rule="nonzero"/></clipPath><clipPath id="b5d38deede"><path d="M 29.859375 52.6875 L 42.097656 52.6875 L 42.097656 57.769531 L 29.859375 57.769531 Z M 29.859375 52.6875 " clip-rule="nonzero"/></clipPath><clipPath id="4e25d428be"><path d="M 0.332031 12 L 9 12 L 9 41 L 0.332031 41 Z M 0.332031 12 " clip-rule="nonzero"/></clipPath><clipPath id="8b5435f974"><path d="M 64.046875 12.648438 L 71.429688 12.648438 L 71.429688 38.585938 L 64.046875 38.585938 Z M 64.046875 12.648438 " clip-rule="nonzero"/></clipPath></defs><g clip-path="url(#3fc2049df3)"><path fill="#ffffff" d="M 39.878906 52.746094 L 29.972656 52.746094 C 30.460938 55.636719 32.980469 57.84375 36.003906 57.84375 C 39.03125 57.84375 41.550781 55.636719 42.039062 52.746094 L 39.878906 52.746094 " fill-opacity="1" fill-rule="nonzero"/></g><path fill="#ffffff" d="M 32.453125 5.347656 C 33.605469 5.113281 34.792969 4.988281 36.003906 4.988281 C 37.21875 4.988281 38.40625 5.113281 39.554688 5.347656 C 39.925781 5.425781 40.292969 5.511719 40.652344 5.613281 C 41.015625 5.710938 41.375 5.824219 41.726562 5.945312 C 41.664062 2.660156 39.121094 0.0117188 36.003906 0.0117188 C 32.886719 0.0117188 30.347656 2.660156 30.28125 5.945312 C 30.636719 5.824219 30.992188 5.710938 31.355469 5.613281 C 31.71875 5.511719 32.085938 5.425781 32.453125 5.347656 " fill-opacity="1" fill-rule="nonzero"/><path fill="#ffffff" d="M 57.257812 44.769531 C 55.859375 43.445312 54.410156 42.082031 53.246094 40.199219 C 51.359375 37.152344 52.527344 25.921875 52.5625 25.605469 L 52.546875 25.519531 L 52.550781 25.425781 C 52.558594 25.21875 52.5625 25.027344 52.5625 24.84375 C 52.5625 17.171875 47.992188 10.621094 41.621094 8.152344 C 41.277344 8.019531 40.925781 7.898438 40.574219 7.789062 C 40.226562 7.683594 39.875 7.589844 39.519531 7.503906 C 38.386719 7.242188 37.210938 7.101562 36.003906 7.101562 C 34.800781 7.101562 33.625 7.242188 32.488281 7.503906 C 32.132812 7.589844 31.78125 7.683594 31.4375 7.789062 C 31.082031 7.898438 30.734375 8.019531 30.390625 8.152344 C 24.015625 10.621094 19.449219 17.171875 19.449219 24.84375 C 19.449219 25.027344 19.453125 25.21875 19.457031 25.425781 L 19.460938 25.519531 L 19.449219 25.605469 C 19.484375 25.9375 20.648438 37.152344 18.761719 40.199219 C 17.597656 42.082031 16.152344 43.445312 14.75 44.769531 C 14.054688 45.425781 13.257812 46.726562 12.714844 48.085938 C 12.183594 49.425781 12.105469 50.285156 12.152344 50.632812 L 59.964844 50.632812 C 60.027344 50.328125 59.957031 49.464844 59.371094 48.082031 C 58.804688 46.746094 57.976562 45.445312 57.257812 44.769531 " fill-opacity="1" fill-rule="nonzero"/><path fill="#ffffff" d="M 13.238281 35.070312 C 14.023438 34.511719 14.207031 33.421875 13.648438 32.640625 C 12.226562 30.644531 11.476562 28.289062 11.476562 25.832031 C 11.476562 23.488281 12.164062 21.222656 13.464844 19.289062 C 14.003906 18.488281 13.789062 17.40625 12.992188 16.867188 C 12.191406 16.332031 11.109375 16.542969 10.570312 17.339844 C 8.878906 19.855469 7.988281 22.792969 7.988281 25.832031 C 7.988281 29.019531 8.960938 32.074219 10.804688 34.664062 C 11.148438 35.140625 11.683594 35.394531 12.226562 35.394531 C 12.578125 35.394531 12.933594 35.289062 13.238281 35.070312 " fill-opacity="1" fill-rule="nonzero"/><g clip-path="url(#da5f1ed330)"><path fill="#ffffff" d="M 4.558594 25.832031 C 4.558594 22.214844 5.59375 18.710938 7.550781 15.691406 C 8.183594 14.714844 7.90625 13.402344 6.925781 12.769531 C 5.945312 12.132812 4.636719 12.414062 4.003906 13.394531 C 1.601562 17.097656 0.332031 21.398438 0.332031 25.832031 C 0.332031 30.710938 1.84375 35.367188 4.707031 39.300781 C 5.121094 39.867188 5.765625 40.167969 6.417969 40.167969 C 6.851562 40.167969 7.285156 40.039062 7.660156 39.765625 C 8.605469 39.078125 8.8125 37.753906 8.125 36.8125 C 5.792969 33.605469 4.558594 29.8125 4.558594 25.832031 " fill-opacity="1" fill-rule="nonzero"/></g><path fill="#ffffff" d="M 58.761719 16.707031 C 57.96875 17.257812 57.773438 18.34375 58.324219 19.136719 C 59.6875 21.101562 60.410156 23.414062 60.410156 25.820312 C 60.410156 28.160156 59.726562 30.414062 58.433594 32.347656 C 57.894531 33.148438 58.109375 34.230469 58.910156 34.765625 C 59.207031 34.964844 59.546875 35.0625 59.878906 35.0625 C 60.441406 35.0625 60.992188 34.789062 61.332031 34.289062 C 63.007812 31.78125 63.898438 28.851562 63.898438 25.820312 C 63.898438 22.699219 62.960938 19.703125 61.1875 17.148438 C 60.640625 16.355469 59.554688 16.160156 58.761719 16.707031 " fill-opacity="1" fill-rule="nonzero"/><g clip-path="url(#af2a482e87)"><path fill="#ffffff" d="M 68.082031 13.695312 C 67.464844 12.707031 66.160156 12.40625 65.167969 13.023438 C 64.179688 13.644531 63.878906 14.949219 64.5 15.9375 C 66.347656 18.894531 67.324219 22.3125 67.324219 25.820312 C 67.324219 29.15625 66.4375 32.429688 64.753906 35.285156 C 64.160156 36.289062 64.496094 37.585938 65.5 38.179688 C 65.839844 38.378906 66.207031 38.472656 66.574219 38.472656 C 67.296875 38.472656 68 38.101562 68.394531 37.429688 C 70.460938 33.925781 71.554688 29.910156 71.554688 25.820312 C 71.554688 21.519531 70.351562 17.328125 68.082031 13.695312 " fill-opacity="1" fill-rule="nonzero"/></g><g clip-path="url(#b5d38deede)"><path fill="#ffffff" d="M 39.878906 52.746094 L 29.972656 52.746094 C 30.460938 55.636719 32.980469 57.84375 36.003906 57.84375 C 39.03125 57.84375 41.550781 55.636719 42.039062 52.746094 L 39.878906 52.746094 " fill-opacity="1" fill-rule="nonzero"/></g><path fill="#ffffff" d="M 32.453125 5.347656 C 33.605469 5.113281 34.792969 4.988281 36.003906 4.988281 C 37.21875 4.988281 38.40625 5.113281 39.554688 5.347656 C 39.925781 5.425781 40.292969 5.511719 40.652344 5.613281 C 41.015625 5.710938 41.375 5.824219 41.726562 5.945312 C 41.664062 2.660156 39.121094 0.0117188 36.003906 0.0117188 C 32.886719 0.0117188 30.347656 2.660156 30.28125 5.945312 C 30.636719 5.824219 30.992188 5.710938 31.355469 5.613281 C 31.71875 5.511719 32.085938 5.425781 32.453125 5.347656 " fill-opacity="1" fill-rule="nonzero"/><path fill="#ffffff" d="M 57.257812 44.769531 C 55.859375 43.445312 54.410156 42.082031 53.246094 40.199219 C 51.359375 37.152344 52.527344 25.921875 52.5625 25.605469 L 52.546875 25.519531 L 52.550781 25.425781 C 52.558594 25.21875 52.5625 25.027344 52.5625 24.84375 C 52.5625 17.171875 47.992188 10.621094 41.621094 8.152344 C 41.277344 8.019531 40.925781 7.898438 40.574219 7.789062 C 40.226562 7.683594 39.875 7.589844 39.519531 7.503906 C 38.386719 7.242188 37.210938 7.101562 36.003906 7.101562 C 34.800781 7.101562 33.625 7.242188 32.488281 7.503906 C 32.132812 7.589844 31.78125 7.683594 31.4375 7.789062 C 31.082031 7.898438 30.734375 8.019531 30.390625 8.152344 C 24.015625 10.621094 19.449219 17.171875 19.449219 24.84375 C 19.449219 25.027344 19.453125 25.21875 19.457031 25.425781 L 19.460938 25.519531 L 19.449219 25.605469 C 19.484375 25.9375 20.648438 37.152344 18.761719 40.199219 C 17.597656 42.082031 16.152344 43.445312 14.75 44.769531 C 14.054688 45.425781 13.257812 46.726562 12.714844 48.085938 C 12.183594 49.425781 12.105469 50.285156 12.152344 50.632812 L 59.964844 50.632812 C 60.027344 50.328125 59.957031 49.464844 59.371094 48.082031 C 58.804688 46.746094 57.976562 45.445312 57.257812 44.769531 " fill-opacity="1" fill-rule="nonzero"/><path fill="#ffffff" d="M 13.238281 35.070312 C 14.023438 34.511719 14.207031 33.421875 13.648438 32.640625 C 12.226562 30.644531 11.476562 28.289062 11.476562 25.832031 C 11.476562 23.488281 12.164062 21.222656 13.464844 19.289062 C 14.003906 18.488281 13.789062 17.40625 12.992188 16.867188 C 12.191406 16.332031 11.109375 16.542969 10.570312 17.339844 C 8.878906 19.855469 7.988281 22.792969 7.988281 25.832031 C 7.988281 29.019531 8.960938 32.074219 10.804688 34.664062 C 11.148438 35.140625 11.683594 35.394531 12.226562 35.394531 C 12.578125 35.394531 12.933594 35.289062 13.238281 35.070312 " fill-opacity="1" fill-rule="nonzero"/><g clip-path="url(#4e25d428be)"><path fill="#ffffff" d="M 4.558594 25.832031 C 4.558594 22.214844 5.59375 18.710938 7.550781 15.691406 C 8.183594 14.714844 7.90625 13.402344 6.925781 12.769531 C 5.945312 12.132812 4.636719 12.414062 4.003906 13.394531 C 1.601562 17.097656 0.332031 21.398438 0.332031 25.832031 C 0.332031 30.710938 1.84375 35.367188 4.707031 39.300781 C 5.121094 39.867188 5.765625 40.167969 6.417969 40.167969 C 6.851562 40.167969 7.285156 40.039062 7.660156 39.765625 C 8.605469 39.078125 8.8125 37.753906 8.125 36.8125 C 5.792969 33.605469 4.558594 29.8125 4.558594 25.832031 " fill-opacity="1" fill-rule="nonzero"/></g><path fill="#ffffff" d="M 58.761719 16.707031 C 57.96875 17.257812 57.773438 18.34375 58.324219 19.136719 C 59.6875 21.101562 60.410156 23.414062 60.410156 25.820312 C 60.410156 28.160156 59.726562 30.414062 58.433594 32.347656 C 57.894531 33.148438 58.109375 34.230469 58.910156 34.765625 C 59.207031 34.964844 59.546875 35.0625 59.878906 35.0625 C 60.441406 35.0625 60.992188 34.789062 61.332031 34.289062 C 63.007812 31.78125 63.898438 28.851562 63.898438 25.820312 C 63.898438 22.699219 62.960938 19.703125 61.1875 17.148438 C 60.640625 16.355469 59.554688 16.160156 58.761719 16.707031 " fill-opacity="1" fill-rule="nonzero"/><g clip-path="url(#8b5435f974)"><path fill="#ffffff" d="M 68.082031 13.695312 C 67.464844 12.707031 66.160156 12.40625 65.167969 13.023438 C 64.179688 13.644531 63.878906 14.949219 64.5 15.9375 C 66.347656 18.894531 67.324219 22.3125 67.324219 25.820312 C 67.324219 29.15625 66.4375 32.429688 64.753906 35.285156 C 64.160156 36.289062 64.496094 37.585938 65.5 38.179688 C 65.839844 38.378906 66.207031 38.472656 66.574219 38.472656 C 67.296875 38.472656 68 38.101562 68.394531 37.429688 C 70.460938 33.925781 71.554688 29.910156 71.554688 25.820312 C 71.554688 21.519531 70.351562 17.328125 68.082031 13.695312 " fill-opacity="1" fill-rule="nonzero"/></g></svg>